<?xml version="1.0" standalone="no"?>
<!DOCTYPE svg PUBLIC "-//W3C//DTD SVG 20010904//EN"
 "http://www.w3.org/TR/2001/REC-SVG-20010904/DTD/svg10.dtd">
<svg version="1.0" xmlns="http://www.w3.org/2000/svg"
 width="256.000000pt" height="256.000000pt" viewBox="0 0 256.000000 256.000000"
 preserveAspectRatio="xMidYMid meet">

<g transform="translate(0.000000,256.000000) scale(0.100000,-0.100000)"
fill="#000000" stroke="none">
<path d="M0 1280 l0 -1280 1280 0 1280 0 0 1280 0 1280 -1280 0 -1280 0 0
-1280z m1295 351 c3 -5 -4 -12 -14 -16 -19 -6 -20 -15 -19 -156 0 -98 4 -149
11 -149 6 0 2 -7 -9 -15 -10 -8 -14 -15 -8 -15 7 0 9 -11 6 -25 -2 -14 -8 -22
-13 -19 -5 3 -9 0 -9 -6 0 -6 7 -13 15 -16 10 -4 12 -15 8 -37 -10 -52 -37
-75 -46 -39 -2 9 -3 4 -1 -13 3 -22 -5 -40 -26 -65 l-29 -35 -1 111 c0 101 -3
116 -25 155 -29 52 -30 55 -9 63 12 4 14 1 9 -14 -5 -14 -2 -20 9 -20 14 0 16
19 16 139 0 128 -2 141 -20 154 -11 8 -17 17 -13 20 10 11 161 8 168 -2z
m-195 -45 c0 -3 -4 -8 -10 -11 -5 -3 -10 -1 -10 4 0 6 5 11 10 11 6 0 10 -2
10 -4z m255 -26 c-3 -5 -12 -10 -18 -10 -7 0 -6 4 3 10 19 12 23 12 15 0z
m-253 -20 c12 -11 17 -20 11 -20 -5 0 -18 9 -28 20 -10 11 -15 20 -11 20 4 0
16 -9 28 -20z m235 -42 c-3 -8 -6 -5 -6 6 -1 11 2 17 5 13 3 -3 4 -12 1 -19z
m-227 -128 c0 -5 -5 -10 -11 -10 -5 0 -7 5 -4 10 3 6 8 10 11 10 2 0 4 -4 4
-10z m213 -115 c-3 -9 -8 -14 -10 -11 -3 3 -2 9 2 15 9 16 15 13 8 -4z m88
-315 c146 0 150 1 159 23 8 20 9 19 9 -10 l1 -33 -230 0 c-147 0 -230 4 -230
10 0 6 6 10 14 10 8 0 17 14 21 30 4 17 28 58 53 92 l47 63 3 -93 3 -92 150 0z
m-584 -172 c-2 -13 -4 -3 -4 22 0 25 2 35 4 23 2 -13 2 -33 0 -45z m80 0 c-2
-13 -4 -3 -4 22 0 25 2 35 4 23 2 -13 2 -33 0 -45z m113 22 c0 -22 -4 -40 -10
-40 -5 0 -10 18 -10 40 0 22 5 40 10 40 6 0 10 -18 10 -40z m54 5 c-1 -51 -14
-56 -14 -7 0 23 3 42 8 42 4 0 7 -16 6 -35z m43 13 c-3 -12 -1 -31 5 -42 10
-20 9 -20 -7 -4 -12 11 -16 24 -11 42 3 14 9 26 12 26 4 0 4 -10 1 -22z m93
-18 c0 -22 -4 -40 -10 -40 -5 0 -10 18 -10 40 0 22 5 40 10 40 6 0 10 -18 10
-40z m74 16 c3 -13 9 -31 12 -40 3 -9 2 -16 -4 -16 -5 0 -14 18 -20 40 -5 22
-6 40 -2 40 4 0 11 -11 14 -24z m93 -38 c-2 -13 -4 -3 -4 22 0 25 2 35 4 23 2
-13 2 -33 0 -45z m49 23 c2 -17 0 -32 -4 -34 -4 -3 -8 13 -9 36 -3 45 8 43 13
-2z m41 -23 c-2 -13 -4 -3 -4 22 0 25 2 35 4 23 2 -13 2 -33 0 -45z m49 15 c1
-32 0 -34 -12 -18 -10 13 -11 22 -3 31 6 7 7 19 3 26 -4 7 -3 9 2 5 4 -4 9
-24 10 -44z m41 -15 c-2 -13 -4 -3 -4 22 0 25 2 35 4 23 2 -13 2 -33 0 -45z
m60 0 c-2 -13 -4 -3 -4 22 0 25 2 35 4 23 2 -13 2 -33 0 -45z m123 27 c0 -37
-15 -37 -16 0 0 19 3 32 8 29 4 -3 8 -16 8 -29z m-60 -7 c-1 -26 -3 -30 -10
-16 -6 9 -7 23 -4 32 9 25 14 19 14 -16z m-613 -170 c-3 -8 -6 -5 -6 6 -1 11
2 17 5 13 3 -3 4 -12 1 -19z m519 13 c-4 -5 0 -12 6 -14 8 -3 6 -6 -4 -6 -18
-1 -24 10 -11 22 9 10 15 8 9 -2z m-282 -17 c3 -8 2 -12 -4 -9 -6 3 -10 10
-10 16 0 14 7 11 14 -7z m130 0 c3 -8 2 -12 -4 -9 -6 3 -10 10 -10 16 0 14 7
11 14 -7z m106 -4 c0 -5 -5 -10 -11 -10 -5 0 -7 5 -4 10 3 6 8 10 11 10 2 0 4
-4 4 -10z m-450 -75 c9 5 11 4 6 -3 -11 -18 -36 -14 -36 6 0 13 2 14 9 3 5 -8
14 -10 21 -6z m457 -17 c-3 -7 -5 -2 -5 12 0 14 2 19 5 13 2 -7 2 -19 0 -25z
m113 17 c11 -13 10 -14 -4 -9 -9 3 -16 10 -16 15 0 13 6 11 20 -6z"/>
</g>
</svg>
